<svg id="Layer_1" data-name="Layer 1" xmlns="http://www.w3.org/2000/svg" viewBox="0 0 193.77 85.1"><defs><style>.cls-1{fill:#fff;}</style></defs><title>logo-transparent</title><path class="cls-1" d="M32.15,81.88s0,0,0,0,0,0,0,0,0,0,0,0Zm150.21-4.64c.59.08,1.19.14,1.82.17l1.86.11c.62,0,1.21.08,1.75.15a6.14,6.14,0,0,1,1.44.32,2.45,2.45,0,0,1,1,.63,1.48,1.48,0,0,1,.37,1,2.3,2.3,0,0,1-.37,1.28,3.24,3.24,0,0,1-1.07,1,5.35,5.35,0,0,1-1.68.64,9.76,9.76,0,0,1-2.26.23,9.47,9.47,0,0,1-2.26-.23,5.11,5.11,0,0,1-1.58-.59,2.64,2.64,0,0,1-.95-.89,2.24,2.24,0,0,1-.29-1.11,2.31,2.31,0,0,1,.61-1.61A4.84,4.84,0,0,1,182.36,77.24Zm-53.25-6.52v3.67a9.08,9.08,0,0,1-1.08,1,6.61,6.61,0,0,1-1.16.76,6,6,0,0,1-1.28.49,7,7,0,0,1-1.5.16,4.79,4.79,0,0,1-1.16-.14,2.93,2.93,0,0,1-.93-.48,2.28,2.28,0,0,1-.61-.84,2.81,2.81,0,0,1-.23-1.21,2.26,2.26,0,0,1,.42-1.33,3.42,3.42,0,0,1,1.38-1,10.38,10.38,0,0,1,2.47-.7A24.09,24.09,0,0,1,129.11,70.72ZM108,63a4.62,4.62,0,0,1,1.91.37,3.57,3.57,0,0,1,1.42,1,4.16,4.16,0,0,1,.9,1.56,5.86,5.86,0,0,1,.31,2H102.8a6.13,6.13,0,0,1,1.62-3.6A4.78,4.78,0,0,1,108,63Zm77-.07a3.89,3.89,0,0,1,2.86,1,3.4,3.4,0,0,1,1,2.59,4,4,0,0,1-.25,1.45,3.14,3.14,0,0,1-.73,1.13,3.56,3.56,0,0,1-1.21.73,5.46,5.46,0,0,1-3.33,0A3.56,3.56,0,0,1,182.1,69a3.19,3.19,0,0,1-.75-1.13,4,4,0,0,1-.25-1.45,3.47,3.47,0,0,1,1-2.59A4,4,0,0,1,185,62.9ZM150.21,61V78.71h3.11V61Zm17.47-.28a7.16,7.16,0,0,0-1.77.21,6.94,6.94,0,0,0-1.54.57,8.09,8.09,0,0,0-1.37.9,11.25,11.25,0,0,0-1.23,1.17l-.24-1.92a.76.76,0,0,0-.82-.65h-1.88V78.71H162V65.64a8.3,8.3,0,0,1,2.21-1.81,5.32,5.32,0,0,1,2.59-.67,3.35,3.35,0,0,1,2.78,1.13,4.69,4.69,0,0,1,.93,3.12v11.3h3.14V67.41a9.2,9.2,0,0,0-.39-2.76,5.58,5.58,0,0,0-1.14-2.11,4.63,4.63,0,0,0-1.85-1.37A6.22,6.22,0,0,0,167.68,60.68Zm-59.78,0a8.59,8.59,0,0,0-3.47.68,7.54,7.54,0,0,0-2.61,1.86A8.12,8.12,0,0,0,100.18,66a10.35,10.35,0,0,0-.56,3.47,12.12,12.12,0,0,0,.63,4.07,8.61,8.61,0,0,0,1.75,3,7.73,7.73,0,0,0,2.68,1.82,9.18,9.18,0,0,0,3.4.61,10.69,10.69,0,0,0,1.94-.18,9.3,9.3,0,0,0,1.9-.49,9.2,9.2,0,0,0,1.73-.83A6.62,6.62,0,0,0,115,76.22l-.88-1.14a.69.69,0,0,0-.6-.3,1.43,1.43,0,0,0-.72.28,10.27,10.27,0,0,1-1,.58,10.61,10.61,0,0,1-1.47.6,7,7,0,0,1-2,.26,6.13,6.13,0,0,1-2.28-.41,4.67,4.67,0,0,1-1.75-1.24,6.13,6.13,0,0,1-1.15-2.08,10.41,10.41,0,0,1-.46-2.93h11.86a.65.65,0,0,0,.6-.25,2,2,0,0,0,.16-1,9.24,9.24,0,0,0-.57-3.36,7,7,0,0,0-1.55-2.49,6.58,6.58,0,0,0-2.35-1.54A7.9,7.9,0,0,0,107.9,60.68Zm77.07,0a8.7,8.7,0,0,0-2.71.4,6.29,6.29,0,0,0-2.12,1.16,5,5,0,0,0-1.4,1.8,5.49,5.49,0,0,0-.49,2.35,5.41,5.41,0,0,0,.73,2.84,5.57,5.57,0,0,0,2.05,2,4.61,4.61,0,0,0-1,.64,4.81,4.81,0,0,0-.72.79,3,3,0,0,0-.42.82,2.74,2.74,0,0,0,.32,2.39,3.4,3.4,0,0,0,1.26.93,5.63,5.63,0,0,0-2.26,1.45,3.2,3.2,0,0,0-.82,2.23,3.56,3.56,0,0,0,.47,1.77,4.48,4.48,0,0,0,1.45,1.5,7.84,7.84,0,0,0,2.42,1,13.19,13.19,0,0,0,3.4.39,11,11,0,0,0,3.48-.51,8,8,0,0,0,2.63-1.33,5.68,5.68,0,0,0,1.63-1.89,4.53,4.53,0,0,0,.58-2.21,3.5,3.5,0,0,0-.52-2A3.67,3.67,0,0,0,191.6,76a6.84,6.84,0,0,0-1.93-.63,21.91,21.91,0,0,0-2.21-.26c-.75-.06-1.48-.1-2.21-.12a16.74,16.74,0,0,1-1.91-.17,4,4,0,0,1-1.36-.46,1.08,1.08,0,0,1-.51-1,1.28,1.28,0,0,1,.3-.79,3.2,3.2,0,0,1,.85-.75,9,9,0,0,0,2.35.3,8.79,8.79,0,0,0,2.67-.4,6.19,6.19,0,0,0,2.1-1.16,5.37,5.37,0,0,0,1.87-4.17,5.61,5.61,0,0,0-.59-2.56l2-.26c.49-.1.74-.35.74-.73V61.66H189a6.82,6.82,0,0,0-1.82-.74A8.7,8.7,0,0,0,185,60.66Zm-59,0a9.93,9.93,0,0,0-3.77.7A10.31,10.31,0,0,0,119,63.46l.56,1a1.53,1.53,0,0,0,.38.42.94.94,0,0,0,.55.16,1.34,1.34,0,0,0,.8-.28c.28-.2.61-.42,1-.65a7.27,7.27,0,0,1,1.34-.65,5.79,5.79,0,0,1,2-.3,3.23,3.23,0,0,1,2.61,1.07,4.68,4.68,0,0,1,.89,3.12v1.38a25.19,25.19,0,0,0-5.11.57,12,12,0,0,0-3.38,1.22,5.07,5.07,0,0,0-1.88,1.74,3.89,3.89,0,0,0-.58,2,5.26,5.26,0,0,0,.39,2.11,4.15,4.15,0,0,0,1.07,1.45,4.83,4.83,0,0,0,1.59.88,6.81,6.81,0,0,0,2,.28,8,8,0,0,0,1.84-.2,6.87,6.87,0,0,0,1.57-.51,8.6,8.6,0,0,0,1.4-.83,17.26,17.26,0,0,0,1.37-1.16l.35,1.68a1.1,1.1,0,0,0,.39.6,1.44,1.44,0,0,0,.7.14h1.38V67.35a8.79,8.79,0,0,0-.4-2.73,5.85,5.85,0,0,0-1.19-2.12,5.46,5.46,0,0,0-1.95-1.37A6.65,6.65,0,0,0,126,60.64Zm13.7-5.44a.68.68,0,0,0-.49.17.72.72,0,0,0-.23.42l-.71,5.48-2.91.37v1.24a.67.67,0,0,0,.19.53.71.71,0,0,0,.47.16h2.14V74.43a4.74,4.74,0,0,0,1.12,3.38A4.32,4.32,0,0,0,142.5,79a6.73,6.73,0,0,0,2.35-.42,6.15,6.15,0,0,0,2-1.19l-.91-1.5a.56.56,0,0,0-.44-.29.58.58,0,0,0-.34.14l-.43.28a4.68,4.68,0,0,1-.63.29,2.39,2.39,0,0,1-.84.13,1.88,1.88,0,0,1-1.41-.55,2.26,2.26,0,0,1-.54-1.66V63.57h5.13V61.31h-5.13V55.2ZM74.77,53.6V78.71h3.4V67.28H91.71V78.71h3.4V53.6h-3.4V64.79H78.17V53.6Zm77-.46a2.11,2.11,0,0,0-.86.18,2.19,2.19,0,0,0-.68.49,2.27,2.27,0,0,0-.48.72,2.24,2.24,0,0,0-.17.86,2.19,2.19,0,0,0,.17.85,2.78,2.78,0,0,0,.48.71,2.5,2.5,0,0,0,.68.47,2.1,2.1,0,0,0,.86.17,2.06,2.06,0,0,0,.86-.17,2.43,2.43,0,0,0,.72-.47,2.58,2.58,0,0,0,.49-.71,1.89,1.89,0,0,0,.19-.85,1.93,1.93,0,0,0-.19-.86,2.33,2.33,0,0,0-1.21-1.21A2.07,2.07,0,0,0,151.73,53.14ZM46.91,33l0,.1.14.36c0,.13.09.34.12.47s.06.37.08.53.05.52.07.81a10.83,10.83,0,0,1,0,1.14c0,.34,0,.79-.07,1s0,.53-.07.7-.06.48-.08.67-.09.57-.14.85-.13.75-.19,1.05-.16.8-.23,1.09-.18.8-.26,1.11-.21.82-.29,1.1-.23.79-.32,1.13-.33,1-.5,1.54-.38,1.13-.47,1.37l-.37,1c-.12.31-.32.81-.45,1.12s-.33.78-.45,1l-.47,1c-.14.3-.38.81-.55,1.13s-.4.78-.52,1-.34.63-.49.89-.4.68-.56.93l-.6.93c-.18.26-.49.71-.71,1s-.59.78-.87,1.1S38,60,37.83,60.3l-.77,1c-.22.28-.52.69-.68.91l-.65.91c-.2.28-.51.75-.69,1s-.48.76-.66,1.06l-.58,1c-.15.27-.39.73-.54,1s-.35.69-.44.89-.24.53-.34.76-.25.62-.35.89-.24.66-.32.89-.18.59-.25.83l-.22.85c-.05.24-.11.55-.14.7s-.08.46-.11.69-.08.62-.1.86,0,.7,0,1.18,0,.88,0,1.06.05.51.07.72.09.6.13.84.14.65.21.92.19.72.28,1,.22.73.31,1,.16.49.16.49.06-.06.11-.12a4.68,4.68,0,0,1,.33-.34c.12-.12.37-.34.54-.48s.45-.37.61-.5.49-.4.73-.58l.82-.62c.21-.16.71-.54,1.11-.82s1-.76,1.4-1l1.51-1.07,1.46-1,1.66-1.15L44,73c.28-.19.71-.51,1-.7s.63-.47.82-.63.5-.4.67-.56.49-.41.68-.58l.82-.77c.25-.25.62-.63.8-.84s.46-.5.6-.66l.49-.59c.14-.16.38-.48.54-.7s.43-.6.6-.85.4-.61.51-.8.29-.47.38-.64.28-.51.4-.75.3-.6.39-.8.25-.59.36-.86.3-.78.41-1.11.25-.81.32-1.05.16-.61.2-.81.12-.53.16-.73.11-.58.15-.83.09-.65.12-.89.07-.66.09-.94,0-.8,0-1.69c0-.73,0-1.34,0-1.61s0-.61-.07-.82-.06-.6-.09-.87-.09-.65-.12-.86-.1-.6-.15-.86-.13-.69-.19-1-.16-.72-.23-1-.21-.81-.32-1.21-.33-1.06-.47-1.49-.35-1-.46-1.31l-.42-1.08c-.12-.31-.32-.77-.43-1s-.31-.68-.42-.94-.35-.74-.52-1.08S50.12,38.26,50,38s-.41-.77-.57-1.05L48.88,36l-.46-.76-.52-.82c-.16-.25-.43-.65-.6-.89s-.33-.47-.35-.51ZM123.62,23h9.8a9.8,9.8,0,0,1,6.23,1.82A6.39,6.39,0,0,1,142,30a7.2,7.2,0,0,1-2.37,5.73,9.49,9.49,0,0,1-6.23,2h-9.8a1.57,1.57,0,0,1-1.21-.44,1.59,1.59,0,0,1-.45-1.21V24.68a1.61,1.61,0,0,1,.45-1.22A1.64,1.64,0,0,1,123.62,23Zm0-17.68h8.65a8.09,8.09,0,0,1,5.18,1.6,5.5,5.5,0,0,1,2,4.57,5.56,5.56,0,0,1-2,4.63,7.8,7.8,0,0,1-5.18,1.59h-8.65A1.54,1.54,0,0,1,122,16V7a1.56,1.56,0,0,1,.45-1.21A1.58,1.58,0,0,1,123.62,5.29Zm40.22-.22h5.46a16.26,16.26,0,0,1,8.15,2.09A14.68,14.68,0,0,1,183.07,13a18.07,18.07,0,0,1,2,8.48,18.11,18.11,0,0,1-2,8.54,14.07,14.07,0,0,1-5.62,5.84A15.66,15.66,0,0,1,169.3,38h-5.46a1.52,1.52,0,0,1-1.65-1.65V6.78a1.56,1.56,0,0,1,.44-1.21A1.59,1.59,0,0,1,163.84,5.07ZM21.19,2.35s0,0,0,0a3,3,0,0,0,.19.26c.1.12.28.38.4.56l.35.56c.07.12.21.4.31.62a7.1,7.1,0,0,1,.3.67c.06.15.15.39.2.54s.12.39.17.55.11.44.15.62.1.49.13.69.08.52.1.71.05.52.06.75,0,.58,0,.79,0,.59,0,.84,0,.61-.06.82-.07.59-.11.86-.1.7-.15.94-.15.71-.23,1-.2.79-.28,1.05-.21.7-.3,1-.24.67-.32.89-.22.58-.32.83-.29.69-.43,1-.4.88-.61,1.28-.48,1-.62,1.22-.34.64-.45.82-.33.57-.5.84-.44.73-.61,1-.46.73-.65,1l-.67,1-.53.75-.6.8c-.21.29-.55.73-.74,1l-.66.84-.62.75-.65.76-.75.87-.91,1c-.27.3-.72.77-1,1s-.79.81-1.16,1.19-.81.86-1.07,1.17-.56.69-.77,1L7.16,38l-.58.77L6,39.6c-.16.24-.44.63-.61.89l-.57.87-.57.92c-.17.28-.43.74-.59,1s-.39.71-.53,1-.36.69-.47.92L2.26,46c-.1.22-.28.62-.39.89s-.29.72-.39,1-.26.72-.35,1-.2.65-.27.86-.16.63-.24.91-.17.77-.23,1.07-.14.73-.17,1-.08.61-.11.85-.06.6-.08.82,0,.8,0,1.34,0,1.07,0,1.43.07.66.09.87.08.53.11.72.08.49.12.67.11.5.17.74.16.6.22.8.16.54.24.76.2.57.28.78l.32.76c.09.2.3.64.47,1s.39.75.49.93.3.51.44.73.38.6.53.82l.57.8.58.74c.16.2.38.48.51.62s.34.4.5.57.56.61.89.94l1,1c.25.23.58.53.75.67l.59.51.71.58.87.68.92.67c.26.19.76.54,1.12.78l1.1.72.91.56,1.05.61c.32.19.86.49,1.19.66l1.27.67c.36.19,1,.49,1.33.66l1.29.6,1.06.48.89.37,1.08.44,1.12.43.95.35,1.11.38,1.05.34a2.47,2.47,0,0,0,.41.11,3.23,3.23,0,0,0-.13-.48c-.08-.25-.19-.64-.26-.85s-.16-.61-.23-.9-.18-.73-.23-1-.15-.72-.2-1-.11-.73-.14-.94-.07-.55-.09-.75,0-.51-.06-.7,0-.68,0-1.09,0-1,0-1.28,0-.72.06-.94.06-.56.09-.76.08-.57.12-.8.11-.6.15-.82.13-.56.19-.77.13-.52.19-.7.13-.44.18-.59a5.92,5.92,0,0,1,.22-.62c.07-.2.2-.53.27-.73s.21-.49.29-.66.24-.53.37-.81.34-.68.45-.88.3-.55.43-.77l.45-.76.62-1c.22-.32.54-.8.73-1.06s.56-.78.85-1.17L34,58.18c.41-.53,1-1.24,1.22-1.59L36,55.54l.58-.84c.15-.23.45-.71.66-1.06l.73-1.25c.19-.34.44-.78.55-1s.34-.61.49-.91.45-.88.66-1.29.45-1,.56-1.19.3-.67.42-.93.33-.78.48-1.15l.47-1.2c.11-.29.29-.82.41-1.17s.31-.93.41-1.27.25-.85.32-1.13.18-.68.24-.9l.2-.9c.06-.27.15-.72.2-1s.13-.76.18-1.07.11-.74.13-1,.07-.63.1-.9.06-.71.08-1,0-.93,0-1.83,0-1.53,0-1.79,0-.59-.07-.81-.07-.65-.11-1-.1-.76-.14-1-.11-.6-.14-.81-.12-.56-.18-.79-.14-.62-.21-.87-.18-.66-.26-.93-.21-.67-.29-.9-.21-.6-.29-.81-.21-.56-.3-.77-.25-.59-.36-.85-.35-.74-.51-1.07-.42-.83-.58-1.11-.38-.67-.51-.89-.37-.62-.55-.89-.46-.7-.63-.94l-.64-.9-.59-.76c-.12-.16-.41-.51-.63-.77s-.56-.66-.74-.87l-.9-1c-.3-.31-.78-.8-1.06-1.07l-.81-.77-.73-.65L31.76,9l-.84-.68L30,7.6l-1-.72-1-.71-.91-.6-.84-.52c-.25-.16-.68-.42-.95-.57L24.48,4l-.78-.43L22.59,3c-.38-.18-.84-.41-1-.49ZM159.33,0a2.67,2.67,0,0,0-2,.83,2.74,2.74,0,0,0-.83,2V40.16A2.83,2.83,0,0,0,159.33,43h10a21.76,21.76,0,0,0,11.07-2.75,19.43,19.43,0,0,0,7.54-7.66,22.86,22.86,0,0,0,2.7-11.13,22.79,22.79,0,0,0-2.7-11.07,20.17,20.17,0,0,0-7.54-7.66A22.38,22.38,0,0,0,169.3,0ZM119.1,0a2.68,2.68,0,0,0-2,.83,2.74,2.74,0,0,0-.82,2V40.16a2.73,2.73,0,0,0,.82,2,2.76,2.76,0,0,0,2,.83h14.32a15.72,15.72,0,0,0,7.27-1.65,11.7,11.7,0,0,0,5-4.63A12.43,12.43,0,0,0,147.52,30a10.35,10.35,0,0,0-2.14-6.72,10.6,10.6,0,0,0-5.9-3.53,10,10,0,0,0,4-3.47,8.12,8.12,0,0,0,1.48-4.84,10.78,10.78,0,0,0-1.65-5.89,11.26,11.26,0,0,0-4.46-4.08A14.19,14.19,0,0,0,132.27,0ZM77.42,0a2.66,2.66,0,0,0-1.93.77,2.49,2.49,0,0,0-.72,1.87,2.59,2.59,0,0,0,.72,1.93,2.59,2.59,0,0,0,1.93.72H87.66a1.56,1.56,0,0,1,1.16.5,1.56,1.56,0,0,1,.5,1.15V40.16A2.82,2.82,0,0,0,92.18,43a2.84,2.84,0,0,0,2-.83,2.73,2.73,0,0,0,.82-2V6.94a1.56,1.56,0,0,1,.5-1.15,1.55,1.55,0,0,1,1.16-.5h10.19a2.48,2.48,0,0,0,1.87-.72,2.66,2.66,0,0,0,.77-1.93,2.57,2.57,0,0,0-.77-1.87A2.56,2.56,0,0,0,106.89,0Z"/></svg>